<?xml version="1.0" encoding="UTF-8"?>
<svg id="Layer_2" data-name="Layer 2" xmlns="http://www.w3.org/2000/svg" viewBox="0 0 341.08 341.08">
  <defs>
    <style>
      .cls-1 {
        font-size: 20.01px;
      }

      .cls-1, .cls-2 {
        font-family: BahijTheSansArabic-Bold, 'Bahij TheSansArabic';
        font-weight: 700;
      }

      .cls-1, .cls-3 {
        fill: #b7852e;
      }

      .cls-4, .cls-2 {
        fill: #fff;
      }

      .cls-5 {
        fill: #006d67;
      }

      .cls-2 {
        font-size: 10.26px;
      }
    </style>
  </defs>
  <g id="Layer_1" data-name="Layer 1">
    <g>
      <rect class="cls-5" width="341.08" height="341.08"/>
      <g>
        <g>
          <g>
            <path class="cls-4" d="M227.76,161.66c.73-.34,1.04-.92.94-1.62-.1-.66-.63-1.12-1.33-1.15s-1.23.4-1.38,1.09.14,1.36.9,1.65v10.09c-.13.12-.42.18-.55.13s-.29-.28-.29-.45c-.14-3.8-1.4-7.37-3.82-10.39.84-3.2,1.42-6.38,1.87-9.68,1.15-8.44,1.47-17.37-.38-25.68-2.34,3.52-3.66,7.63-4.7,11.71-.97,3.81-1.6,7.61-2.15,11.47-.95-2.16-1.45-4.24-1.66-6.5-.58-6.48.41-12.86,2.83-18.97-2.06,1.36-3.84,2.84-5.44,4.59-1.91,2.09-3.6,4.24-5.17,6.6-2.24,3.37-4.08,6.8-5.73,10.69-1.08-6.59,1.16-13,4.61-18.54,1.94-3.11,4.21-5.88,6.99-8.31-1.83.3-3.47.87-5.14,1.62-7.36,3.3-14.03,9.44-19.33,15.68.55-3.15,1.79-5.93,3.35-8.56,4.54-7.63,12.01-13.45,20.45-15.93-1.4-.26-2.64-.31-3.98-.24-2.54.15-4.95.52-7.43,1.14-4.61,1.16-8.94,2.81-13.27,5.02.8-1.28,1.74-2.31,2.81-3.31,4.02-3.77,9.45-6.56,14.75-8.16,3.97-1.19,7.99-1.73,12.13-1.46-1.22-1.45-2.82-2.25-4.59-3.2,2.69-.81,5.49-.61,7.98.78-.78-1.61-2.05-2.76-3.36-4,2.74-.01,5.14,1.12,7.22,2.84.32-1.71,1.13-3.21,2.41-4.47,1.32,1.19,2.11,2.72,2.46,4.51,2.05-1.76,4.49-2.88,7.23-2.89-1.32,1.21-2.54,2.35-3.39,4,1.34-.62,2.66-1.18,4.18-1.22,1.31-.04,2.57.05,3.81.44-1.63.88-3.44,1.76-4.57,3.21,8.81-.57,18.53,2.77,25.39,8.36,1.62,1.32,3.08,2.74,4.22,4.57-4.45-2.28-8.92-3.98-13.68-5.12-3.33-.8-7.46-1.44-10.88-.8,8.55,2.6,15.92,8.34,20.48,16.11,1.54,2.61,2.68,5.4,3.28,8.44-4.83-5.69-10.69-11.2-17.24-14.7-2.29-1.22-4.6-2.19-7.19-2.65,1.1,1.1,2.21,2.1,3.23,3.28,5.39,6.27,9.7,15.08,8.3,23.62-2.1-4.98-4.71-9.66-8.02-13.95-2.33-3.02-5.02-5.93-8.34-7.98,2.33,5.83,3.35,11.97,2.92,18.21-.18,2.5-.67,4.89-1.73,7.23-.62-4.25-1.3-8.21-2.36-12.23-.99-3.74-2.26-7.64-4.48-10.93-2.15,9.57-1.41,20.09.25,29.62l1.25,5.72c-2.37,3.01-3.74,6.59-3.83,10.44,0,.22-.25.43-.41.45-.24.02-.43-.22-.43-.52v-9.69Z"/>
            <path class="cls-4" d="M230.41,191.9c-.1-.77.35-1.45,1.07-1.66l1.32-.39c.49-.39.48-1.12.03-1.6l-5.51-5.88-5.61,6c-.24.25-.24.81-.15,1.06.33.88,2.1.34,2.61,1.73.31.86-.13,1.69-.82,2.15s-1.62.34-2.32-.2c-.78-.61-1.06-1.54-1.18-2.58l-2.21,1.93c-2.75,2.39-6.47,3.21-9.9,1.87-.93-.36-1.73-1.03-2.16-1.9-.76-1.54-.25-3.39,1.32-4.11,1.13-.52,2.47-.17,3.34.73,1.5,1.55,3.24,1.37,4.94.07,1.41-1.08,1.65-2.55.83-2.36s-1.48-.23-1.8-.96c-.41-.96-.02-2.21,1.04-2.5.73-.2,1.44.22,1.9.77.52.61.68,1.34.87,2.19l2.71-2.82,3.79-4.12-5.8-5.8c-2.6-2.6-5.38-4.87-8.29-7.11-4.63-3.57-9.84-6.42-15.6-7.45l-.22.7,2.43,5.92,5.59,13.41c.82.1,1.27.75,1.09,1.42-.57,2.12-1.78,3.89-3.38,5.3-4.23,3.71-10.38,3.81-14.71.21-1.75-1.46-3.12-3.35-3.67-5.6-.19-.76.45-1.27,1.13-1.33l6.5-14.77,1.91-4.46c-.26-.46-.4-.84-.39-1.4-1.88-.36-3.74-.45-5.83-.55,2.97-1.43,6.22-1.91,9.52-1.63,7.6.64,14.11,3.71,20.12,8.27,2.49,1.89,4.76,3.88,6.95,6.09l2.3,2.32,3.18,3.36c8.94-9.74,18.77-18.92,32.6-20.05,3.26-.27,6.48.21,9.41,1.61-2.03.1-3.85.17-5.74.52-.02.52-.12.93-.42,1.37l3.76,8.8,4.64,10.5c.4.06.73.19.9.4.19.25.32.71.23,1.02-.57,1.97-1.65,3.67-3.12,5.03-3.54,3.29-8.61,4.08-12.9,1.85-2.78-1.45-4.9-3.85-5.73-6.89-.2-.72.32-1.37,1.08-1.4l7.99-19.14c.11-.25-.11-.73-.2-.9-6.17,1.15-11.19,4.02-16.09,7.84-4.88,3.8-9.32,8.01-13.58,12.53l2.13,2.31,4.35,4.63c.24-.88.39-1.66.96-2.3.48-.54,1.26-.92,1.96-.63,1.15.48,1.4,1.96.66,2.92-.45.58-1.14.62-1.89.46-.18.4-.09.87.16,1.26,1.22,1.95,3.98,2.91,5.48,1.49.45-.42.9-.86,1.46-1.11.9-.4,1.83-.38,2.7.14.67.41,1.23,1.2,1.31,2.15.12,1.49-.68,2.85-2.1,3.51-3.02,1.4-6.6.92-9.35-.98l-3.17-2.67c-.08,1.01-.36,1.91-1.07,2.52-.59.5-1.32.72-2.06.44-.6-.22-1.16-.76-1.27-1.58ZM194.07,180.39h7.51c-.04-.45.08-.8.37-1.16l-7.94-18.99c-.24.06-.43.14-.61.29v18.63c.54.26.73.7.67,1.23ZM261.24,179.14v-16.22s.01-2.43.01-2.43l-.59-.24-7.96,19.04c.36.31.46.67.41,1.1h7.48c-.01-.52.14-.94.65-1.25ZM262.75,180.39h7.84c-.04-.42.06-.77.35-1.11l-8.34-19.05-.58.24v18.67c.56.23.72.7.73,1.25ZM191.95,180.39c-.04-.62.18-.97.68-1.23v-18.62c-.18-.13-.41-.21-.59-.22l-8.32,18.96c.31.34.41.62.37,1.09h7.87Z"/>
          </g>
          <g>
            <polygon class="cls-3" points="130.25 106.88 130.25 119.66 143.03 119.66 143.03 132.44 155.81 132.44 155.81 106.88 130.25 106.88"/>
            <polygon class="cls-4" points="113.34 132.44 113.34 140.89 121.8 140.89 121.8 149.35 130.25 149.35 130.25 132.44 113.34 132.44"/>
            <polygon class="cls-4" points="130.25 149.35 130.25 157.8 138.71 157.8 138.71 166.26 147.16 166.26 147.16 149.35 130.25 149.35"/>
            <polygon class="cls-4" points="96.44 115.53 96.44 123.99 104.89 123.99 104.89 132.44 113.34 132.44 113.34 115.53 96.44 115.53"/>
            <polygon class="cls-4" points="98.18 151.09 98.18 157.8 104.89 157.8 104.89 164.51 111.6 164.51 111.6 151.09 98.18 151.09"/>
            <polygon class="cls-4" points="115.09 168 115.09 174.71 121.8 174.71 121.8 181.42 128.51 181.42 128.51 168 115.09 168"/>
            <polygon class="cls-4" points="81.27 134.19 81.27 140.89 87.98 140.89 87.98 147.6 94.69 147.6 94.69 134.19 81.27 134.19"/>
            <g>
              <polygon class="cls-4" points="74.83 161.56 74.83 166.26 79.53 166.26 79.53 170.95 84.23 170.95 84.23 161.56 74.83 161.56"/>
              <polygon class="cls-4" points="91.74 178.47 91.74 183.16 96.44 183.16 96.44 187.86 101.13 187.86 101.13 178.47 91.74 178.47"/>
            </g>
            <polygon class="cls-4" points="67.72 188.26 67.72 191.62 71.07 191.62 71.07 194.97 74.43 194.97 74.43 188.26 67.72 188.26"/>
          </g>
        </g>
        <text class="cls-1" transform="translate(66.21 220.98)"><tspan x="0" y="0">برنامج التحول المؤسسي</tspan></text>
        <text class="cls-2" transform="translate(68.09 239.5)"><tspan x="0" y="0">INSTITUTIONAL TRANSFORMATION PROGRAM</tspan></text>
      </g>
    </g>
  </g>
</svg>